<?xml version="1.0" encoding="utf-8"?>
<!-- Generator: Adobe Illustrator 25.4.1, SVG Export Plug-In . SVG Version: 6.00 Build 0)  -->
<svg version="1.1" id="Capa_1" xmlns="http://www.w3.org/2000/svg" xmlns:xlink="http://www.w3.org/1999/xlink" x="0px" y="0px"
	 viewBox="0 0 595.3 595.3" style="enable-background:new 0 0 595.3 595.3;" xml:space="preserve">
<style type="text/css">
	.st0{fill:#FFFFFF;}
</style>
<g>
	<path class="st0" d="M294.6,256.4l1.2-3.8c-2.7-8.5-4-16.3-4-23.2c0-19.5,3.7-23.3,4.8-24l0.4-0.3l0.5,0c-0.9-2-1.8-2.5-2.1-2.7
		l-0.4-0.2l-1.2,0l-0.4,0.3c-1.1,0.7-4.9,4.5-4.9,24.3l0,0c0,7.1,1.4,15.1,4.2,23.9L294.6,256.4z"/>
	<path class="st0" d="M226.2,363.6v-32.1c-2.7,18.4-3.9,32.6-3,37.7v0c2.4,13.3,12,18.7,22.5,20
		C235.3,386.8,226.2,379.2,226.2,363.6z"/>
	<path class="st0" d="M294.2,371.6c-12.8,21.9-32.3,28.2-48.9,26.5c2.7,0.5,5.5,0.8,8.4,0.8c17.4,0,34-9.1,42.3-23.3l0.3-0.5
		c-0.1-0.1-0.1-0.2-0.2-0.3L294.2,371.6z"/>
	<polygon class="st0" points="217.5,300.8 217.5,308.3 236.5,329.7 	"/>
	<path class="st0" d="M297.7,207h-0.2c0,0-3.9,2.5-3.9,22.4c0,8,2,16.4,4.1,23.1c2.1-6.5,3.9-14.6,3.9-23.1
		C301.7,209.5,297.7,207,297.7,207z"/>
	<path class="st0" d="M297.6,128.1c-93.6,0-169.5,75.9-169.5,169.5S204,467.1,297.6,467.1s169.5-75.9,169.5-169.5
		S391.3,128.1,297.6,128.1z M379.7,363.6c0,25.7-19.2,37.2-38.2,37.2c-12.2,0-24.5-4.5-33.7-12.3c-4.1-3.5-7.5-7.5-10.1-12
		c-9.1,15.5-26.7,24.2-43.9,24.2c-10.2,0-19.6-3.2-26.3-9c-7.8-6.7-11.9-16.4-11.9-28.1v-69.1l24.6,37.4l-12.1-0.9v32.7
		c0,18.2,13.3,24.7,25.7,24.7c9.3,0,18.6-3.4,25.7-9.3c5.5-4.6,11.9-12.8,11.9-26v-82.3c-2.4-5.1-10.3-23.3-10.3-41.3
		c0-8.6,0-34.9,16.5-34.9c16.5,0,16.5,26.3,16.5,34.9c0,19.2-7.8,36.3-10.3,41.4v82.2c0,22.1,19.1,35.3,37.6,35.3
		c7.2,0,13.7-2.1,18.2-6c5-4.3,7.5-10.6,7.5-18.7V331l-12.1,0.9l0,0l24.6-37.4V363.6z"/>
	<path class="st0" d="M302,352.9v-82.6l0.2-0.4c2.4-4.7,10.1-21.7,10.1-40.5c0-6.9,0-25.6-8.8-31.4c5.8,7.7,5.8,22.7,5.8,28.7
		c0,19.1-8.5,36.5-10.9,41.3l-0.2,0.4l0.1,83.9c0,20.2,15.4,32.8,32,36.2C315.1,384.4,302,371.7,302,352.9z"/>
	<path class="st0" d="M338.9,398.4c-2.9,0-5.8-0.3-8.6-0.8c3.7,0.8,7.5,1.3,11.2,1.3c18.1,0,36.3-10.9,36.3-35.3v0v-62.9l-3.8,61.9
		C374.1,387.3,357.1,398.4,338.9,398.4z"/>
</g>
</svg>
