<?xml version="1.0" encoding="iso-8859-1"?>
<!-- Uploaded to: SVG Repo, www.svgrepo.com, Generator: SVG Repo Mixer Tools -->
<svg height="800px" width="800px" version="1.1" id="Layer_1" xmlns="http://www.w3.org/2000/svg" xmlns:xlink="http://www.w3.org/1999/xlink" 
	 viewBox="0 0 512 512" xml:space="preserve">
<path style="fill:#4FC0E8;" d="M0,256.006C0,397.402,114.606,512.004,255.996,512C397.394,512.004,512,397.402,512,256.006
	C512.009,114.61,397.394,0,255.996,0C114.606,0,0,114.614,0,256.006z"/>
<path style="fill:#3DAED9;" d="M512,256.005c0.001-27.305-4.314-53.594-12.229-78.268c-0.159-0.105-0.317-0.21-0.459-0.341
	c-0.249-0.268-0.399-0.609-0.659-0.869c-0.247-0.247-80.639-80.445-80.894-80.683c-0.247-0.268-0.397-0.607-0.657-0.867
	c-15.617-15.622-45.954-8.521-68.654,0.193c-23.909,9.172-49.954,24.523-61.927,36.5c-2.771,2.771-2.771,7.258,0,10.029
	c0,0,37.067,37.068,37.069,37.07l0.16,0.159c-0.657,0.334-1.312,0.688-1.862,1.237l-10.938,10.938l-32.211-32.21
	c-2.771-2.771-7.26-2.771-10.031,0s-2.771,7.259,0,10.03l32.211,32.211l-11.239,11.239l-42.847-42.848
	c-2.771-2.771-7.26-2.771-10.031,0s-2.771,7.259,0,10.03l42.846,42.849l-11.238,11.237l-48.163-48.163
	c-2.771-2.771-7.26-2.771-10.031,0s-2.771,7.259,0,10.03l48.161,48.165l-11.238,11.239l-53.482-53.482
	c-2.771-2.771-7.26-2.771-10.031,0s-2.771,7.259,0,10.03l53.481,53.483l-11.241,11.241l-48.163-48.161
	c-2.771-2.771-7.26-2.771-10.031,0c-2.771,2.771-2.771,7.261,0,10.031l48.161,48.161l-11.238,11.239l-37.529-37.526
	c-2.771-2.771-7.259-2.771-10.03,0c-2.771,2.771-2.771,7.261,0,10.031l37.525,37.526l-11.238,11.239l-26.89-26.891
	c-2.771-2.771-7.26-2.771-10.031,0c-2.771,2.771-2.771,7.261,0,10.031l26.889,26.89l-11.238,11.238l-10.94-10.94
	c-2.771-2.771-7.259-2.771-10.03,0c-2.771,2.771-2.771,7.261,0,10.031l9.993,9.994l-59.331,9.99
	c-2.622,0.443-4.777,2.314-5.58,4.843c-0.807,2.535-0.131,5.306,1.753,7.184c0,0,137.886,137.878,137.894,137.894l1.358,1.351
	c9.468,1.061,19.075,1.658,28.827,1.658C397.394,512.004,512,397.401,512,256.005z"/>
<g>
	<path style="fill:#F4F6F9;" d="M417.103,94.976c-15.617-15.62-45.954-8.521-68.654,0.194
		c-23.909,9.171-49.954,24.522-61.929,36.499c-2.771,2.771-2.771,7.26,0,10.031l37.23,37.228c-0.658,0.333-1.313,0.688-1.863,1.238
		l-10.938,10.937l-32.211-32.21c-2.771-2.771-7.26-2.771-10.031,0c-2.771,2.771-2.771,7.26,0,10.031l32.211,32.21l-11.241,11.241
		l-42.846-42.847c-2.771-2.771-7.26-2.771-10.031,0s-2.771,7.26,0,10.031l42.846,42.848l-11.241,11.241l-48.162-48.165
		c-2.771-2.771-7.26-2.771-10.031,0c-2.771,2.771-2.771,7.26,0,10.031l48.162,48.165l-11.241,11.241l-53.481-53.483
		c-2.771-2.771-7.26-2.771-10.031,0c-2.771,2.771-2.771,7.26,0,10.031l53.481,53.483l-11.241,11.241l-48.162-48.16
		c-2.771-2.771-7.26-2.771-10.031,0c-2.771,2.771-2.771,7.26,0,10.031l48.162,48.161l-11.241,11.241l-37.527-37.525
		c-2.771-2.771-7.26-2.771-10.031,0s-2.771,7.26,0,10.031l37.527,37.524l-11.241,11.241l-26.89-26.89
		c-2.771-2.771-7.26-2.771-10.031,0c-2.771,2.771-2.771,7.26,0,10.031l26.89,26.89l-11.239,11.239l-10.94-10.94
		c-2.771-2.771-7.26-2.771-10.031,0c-2.771,2.771-2.771,7.26,0,10.031l9.994,9.994l-59.331,9.991
		c-2.622,0.444-4.777,2.314-5.58,4.842c-0.807,2.535-0.131,5.307,1.753,7.183l53.311,53.089c1.35,1.344,3.158,2.064,5.005,2.064
		c0.727,0,1.461-0.111,2.178-0.339c2.528-0.817,4.388-2.978,4.821-5.597l9.78-59.297l9.977,9.977c1.386,1.386,3.2,2.078,5.015,2.078
		c1.814,0,3.63-0.692,5.015-2.078c2.771-2.771,2.771-7.26,0-10.031l-10.937-10.937l11.239-11.239l26.892,26.893
		c1.386,1.386,3.2,2.078,5.015,2.078s3.63-0.692,5.015-2.078c2.771-2.771,2.771-7.26,0-10.031l-26.892-26.893l11.241-11.241
		l37.527,37.524c1.386,1.386,3.2,2.078,5.015,2.078c1.814,0,3.63-0.692,5.015-2.078c2.771-2.771,2.771-7.26,0-10.031l-37.526-37.524
		l11.241-11.239l48.162,48.161c1.386,1.386,3.2,2.078,5.015,2.078c1.814,0,3.63-0.692,5.015-2.078c2.771-2.771,2.771-7.26,0-10.031
		l-48.162-48.161l11.241-11.241l53.477,53.478c1.386,1.386,3.2,2.078,5.015,2.078s3.63-0.692,5.015-2.078
		c2.771-2.771,2.771-7.26,0-10.031l-53.477-53.478l11.241-11.239l48.159,48.157c1.386,1.386,3.2,2.078,5.015,2.078
		c1.814,0,3.63-0.692,5.015-2.078c2.771-2.771,2.771-7.26,0-10.031l-48.16-48.162l11.241-11.241l37.525,37.527
		c1.386,1.386,3.2,2.078,5.015,2.078c1.814,0,3.63-0.692,5.015-2.078c2.771-2.771,2.771-7.26,0-10.031l-37.525-37.526l11.242-11.242
		l32.207,32.206c1.386,1.386,3.2,2.078,5.015,2.078c1.814,0,3.63-0.692,5.015-2.078c2.771-2.771,2.771-7.26,0-10.031l-32.207-32.206
		l10.937-10.937c0.55-0.55,0.907-1.205,1.237-1.863l37.229,37.227c1.33,1.33,3.135,2.078,5.015,2.078
		c1.881,0,3.685-0.748,5.015-2.078C401.264,204.707,445.088,122.961,417.103,94.976z M141.478,404.409l-33.78-33.638l40.451-6.81
		L141.478,404.409z M375.121,210.236l-73.241-73.241c11.059-8.853,30.667-20.532,51.648-28.581
		c18.606-7.138,34.13-9.722,44.29-7.722c-0.667,5.393-4.209,27.123-19.377,44.207c-2.597,2.93-2.335,7.412,0.596,10.017
		c1.35,1.198,3.034,1.787,4.707,1.787c1.957,0,3.907-0.803,5.31-2.383c13.357-15.049,19.02-32.604,21.393-43.491
		C418.379,132.827,394.605,186.364,375.121,210.236z"/>
	<path style="fill:#F4F6F9;" d="M352.438,118.3c-5.532,5.527-5.532,14.533,0,20.061c2.764,2.764,6.397,4.149,10.031,4.149
		c3.633,0,7.266-1.386,10.031-4.149c5.532-5.527,5.532-14.533,0-20.061C366.972,112.771,357.967,112.771,352.438,118.3z"/>
</g>
</svg>